<?xml version="1.0" encoding="UTF-8"?>
<!DOCTYPE svg PUBLIC "-//W3C//DTD SVG 1.1//EN" "http://www.w3.org/Graphics/SVG/1.1/DTD/svg11.dtd">
<!-- Creator: CorelDRAW 2021 (64 Bit) -->
<svg xmlns="http://www.w3.org/2000/svg" xml:space="preserve" width="24px" height="27px" version="1.1" style="shape-rendering:geometricPrecision; text-rendering:geometricPrecision; image-rendering:optimizeQuality; fill-rule:evenodd; clip-rule:evenodd"
viewBox="0 0 24 27.066"
 xmlns:xlink="http://www.w3.org/1999/xlink"
 xmlns:xodm="http://www.corel.com/coreldraw/odm/2003">
 <defs>
  <style type="text/css">
   <![CDATA[
    .fil0 {fill:black}
   ]]>
  </style>
 </defs>
 <g id="Camada_x0020_1">
  <metadata id="CorelCorpID_0Corel-Layer"/>
  <path class="fil0" d="M3.277 20.617l17.445 0 0 5.075 -17.445 0 0 -5.075zm4.388 -8.723l1.427 0 0 5.075 2.485 0 0 1.163 -3.912 0 0 -6.238zm8.247 1.322c-0.18,-0.042 -0.3,-0.121 -0.509,-0.178 -1.382,-0.381 -2.504,0.478 -1.05,1.208 0.641,0.323 1.264,0.413 1.756,0.993 0.876,1.035 0.27,2.999 -1.995,2.999 -0.701,0 -1.347,-0.076 -1.903,-0.37 0.085,-0.361 0.18,-0.745 0.265,-1.11 0.205,0.017 0.172,0.042 0.319,0.103 0.114,0.048 0.231,0.076 0.361,0.115 0.271,0.08 0.432,0.083 0.771,0.132 0.516,0.074 1.139,-0.146 1.139,-0.72 0,-1.059 -3.037,-0.765 -2.75,-2.958 0.206,-1.571 2.094,-1.794 3.353,-1.505 0.257,0.059 0.361,0.134 0.56,0.181 -0.044,0.189 -0.104,0.377 -0.148,0.539 -0.059,0.22 -0.083,0.392 -0.169,0.571zm1.163 -1.322l1.586 0c0.181,0.343 0.357,0.708 0.529,1.057 0.089,0.181 0.147,0.35 0.246,0.546 0.082,0.162 0.189,0.392 0.229,0.565l0.775 -1.605c0.092,-0.192 0.211,-0.334 0.23,-0.563l1.585 0c-0.058,0.253 -0.275,0.52 -0.404,0.758 -0.207,0.38 -1.287,2.181 -1.287,2.308 0,0.091 0.778,1.414 0.888,1.597l0.909 1.575 -1.586 0c-0.196,-0.37 -0.368,-0.737 -0.564,-1.128 -0.129,-0.258 -0.422,-0.963 -0.599,-1.092l-1.004 2.22 -1.586 0 1.797 -3.172 -1.744 -3.066zm-15.489 0l1.586 0c0.187,0.354 0.345,0.679 0.513,1.073 0.118,0.275 0.431,0.837 0.491,1.095l0.106 0c0.08,-0.345 0.293,-0.766 0.43,-1.104 0.132,-0.327 0.384,-0.701 0.469,-1.064l1.585 0c-0.042,0.18 -0.298,0.578 -0.406,0.757l-1.338 2.309 1.85 3.172 -1.639 0 -1.163 -2.22c-0.017,0.204 -0.769,1.877 -0.951,2.22l-1.586 0c0.139,-0.263 0.289,-0.496 0.441,-0.775 0.152,-0.278 0.285,-0.495 0.441,-0.774l0.876 -1.547c0.031,-0.153 -0.722,-1.401 -0.809,-1.553 -0.297,-0.517 -0.614,-1.056 -0.896,-1.589zm1.691 -10.837l12.265 0 0 5.551c0,0.161 0.243,0.423 0.528,0.423l4.652 0 0 2.643 -17.445 0 0 -8.617zm-1.11 0.053l0 8.564c-0.678,0 -1.13,-0.078 -1.631,0.377l-0.082 0.077c-0.258,0.257 -0.454,0.584 -0.454,1.079l0 7.877c0,0.821 0.731,1.533 1.427,1.533l0.74 0 0 5.339c0,0.616 0.435,1.11 1.005,1.11l17.656 0c0.57,0 1.005,-0.494 1.005,-1.11l0 -5.339c0.691,0 1.148,0.08 1.687,-0.427 0.26,-0.245 0.48,-0.625 0.48,-1.106l0 -7.877c0,-0.8 -0.697,-1.533 -1.427,-1.533l-0.74 0 0 -3.172c0,-0.293 -0.708,-1.049 -0.939,-1.282 -0.559,-0.561 -1.852,-2.178 -2.51,-2.881l-0.899 -1.005c-0.088,-0.099 -0.079,-0.11 -0.161,-0.208l-0.717 -0.817c-0.111,-0.142 -0.246,-0.309 -0.484,-0.309l-12.951 0c-0.289,0 -0.587,0.17 -0.727,0.331 -0.158,0.181 -0.278,0.452 -0.278,0.779z"/>
 </g>
</svg>
